#!OML:ASF F:\VICON\USERDATA\INSTALL\rory3\rory3.ASF
:FULLY-SPECIFIED
:DEGREES
2430
root -3.6074 17.6596 -5.16916 15.6714 61.9186 8.9163
lowerback 7.87777 -1.03638 1.68771
upperback 3.0722 -1.01014 5.58985
thorax -1.1633 -0.465023 4.94122
lowerneck -11.5797 -15.5133 -13.4009
upperneck 16.1749 -20.1509 7.896
head 9.12377 -9.62682 2.11261
rclavicle -3.89618e-014 8.42847e-014
rhumerus 6.51243 -10.784 -74.6258
rradius 74.1892
rwrist 12.8139
rhand -41.1176 -12.7187
rfingers 7.12502
rthumb -14.045 -42.2242
lclavicle -3.89618e-014 8.42847e-014
lhumerus 6.54839 -24.7031 67.8083
lradius 79.7383
lwrist -30.9415
lhand -26.0511 20.8489
lfingers 7.12502
lthumb 0.496357 410.828
rfemur -32.3933 -10.4808 13.4769
rtibia 38.5768
rfoot -14.2803 -10.2949
rtoes 12.9181
lfemur -5.76871 -4.65418 -20.0518
ltibia 19.0813
lfoot -16.4039 5.76591
ltoes -16.9812
2431
root -3.59561 17.656 -5.17467 15.7572 61.6264 8.88194
lowerback 7.83755 -1.19487 1.50876
upperback 3.044 -1.23659 5.59675
thorax -1.14924 -0.580299 5.0694
lowerneck -11.5957 -15.4473 -13.3584
upperneck 16.1804 -20.0611 7.8697
head 9.11123 -9.58507 2.11355
rclavicle 3.97569e-015 -3.18055e-015
rhumerus 7.00689 -13.0627 -74.0519
rradius 73.5498
rwrist 13.0746
rhand -41.4616 -12.9199
rfingers 7.12502
rthumb -14.3764 -42.4021
lclavicle 3.97569e-015 -3.18055e-015
lhumerus 7.24052 -25.6848 68.2681
lradius 79.5314
lwrist -31.5374
lhand -25.7445 20.4984
lfingers 7.12502
lthumb 0.79255 410.477
rfemur -32.6115 -10.4549 13.4724
rtibia 38.6246
rfoot -14.2424 -10.1457
rtoes 13.1653
lfemur -5.82053 -4.58921 -20.1439
ltibia 19.0544
lfoot -16.4585 5.91306
ltoes -16.7414
2432
root -3.58627 17.6531 -5.17855 16.0186 61.3861 9.08612
lowerback 7.8816 -1.3948 1.25066
upperback 3.01693 -1.5206 5.58357
thorax -1.1729 -0.724599 5.22876
lowerneck -11.405 -15.3954 -13.5118
upperneck 15.9255 -20.0181 8.12118
head 9.03105 -9.56317 2.2407
rclavicle -4.92986e-014 0
rhumerus 7.57822 -15.0946 -73.4901
rradius 72.8497
rwrist 12.8355
rhand -42.1592 -13.2098
rfingers 7.12502
rthumb -15.0485 -42.6429
lclavicle -4.92986e-014 0
lhumerus 7.92529 -26.5167 68.6591
lradius 79.3493
lwrist -32.0939
lhand -25.3329 20.2091
lfingers 7.12502
lthumb 1.19002 410.186
rfemur -32.7874 -10.4525 13.3479
rtibia 38.6776
rfoot -14.1775 -10.1246
rtoes 12.8176
lfemur -5.85699 -4.56041 -20.3314
ltibia 19.0347
lfoot -16.4418 5.99157
ltoes -16.631
2433
root -3.57853 17.6513 -5.18132 16.0925 61.1809 9.12685
lowerback 8.00546 -1.60786 1.04961
upperback 2.99549 -1.81224 5.60636
thorax -1.23227 -0.871462 5.39754
lowerneck -11.334 -15.3294 -13.634
upperneck 15.7717 -19.9412 8.30877
head 8.99203 -9.52332 2.33797
rclavicle 1.19271e-014 -3.49861e-014
rhumerus 8.08981 -16.9936 -73.0155
rradius 72.3
rwrist 12.5363
rhand -42.9695 -14.2145
rfingers 7.12502
rthumb -15.829 -43.5874
lclavicle 1.19271e-014 -3.49861e-014
lhumerus 8.6108 -27.2001 69.0567
lradius 79.0673
lwrist -32.5002
lhand -24.8991 19.9477
lfingers 7.12502
lthumb 1.60904 409.921
rfemur -32.8807 -10.3935 13.3047
rtibia 38.6963
rfoot -14.1847 -10.1253
rtoes 12.3539
lfemur -5.8676 -4.51167 -20.4274
ltibia 19.046
lfoot -16.3969 6.10277
ltoes -17.1971
2434
root -3.56876 17.6528 -5.18571 15.9829 60.9362 8.91245
lowerback 8.08815 -1.77692 0.957983
upperback 2.95418 -2.03809 5.63907
thorax -1.29665 -0.984464 5.50841
lowerneck -11.4582 -15.2597 -13.5385
upperneck 15.8143 -19.8477 8.28811
head 9.00531 -9.47181 2.32574
rclavicle -6.67916e-014 -4.77083e-014
rhumerus 8.53735 -19.0579 -72.7113
rradius 71.9014
rwrist 12.4011
rhand -43.5492 -15.2652
rfingers 7.12502
rthumb -16.3872 -44.593
lclavicle -6.67916e-014 -4.77083e-014
lhumerus 9.38764 -28.0153 69.3874
lradius 78.588
lwrist -32.3148
lhand -24.6875 19.9926
lfingers 7.12502
lthumb 1.8134 409.965
rfemur -33.0142 -10.3216 13.3891
rtibia 38.7012
rfoot -14.1415 -10.0266
rtoes 12.3531
lfemur -5.87593 -4.40483 -20.4048
ltibia 19.0144
lfoot -16.4175 6.18815
ltoes -17.278
